<svg width="96" height="96" viewBox="0 0 96 96" fill="none" xmlns="http://www.w3.org/2000/svg">
<path d="M78.0083 73.846L77.344 74.5935L78.0083 73.846ZM67.9539 49.2249L66.9539 49.2275L67.9539 49.2249ZM28.9302 31.4691L28.1069 30.9016L28.9302 31.4691ZM18.5433 73.8956L19.2812 74.5705L18.5433 73.8956ZM19.2812 74.5705C20.1212 73.652 21.7805 71.7405 23.3768 69.3302C24.9647 66.9325 26.5381 63.9708 27.1353 60.9588L25.1735 60.5698C24.6497 63.2113 23.237 65.9192 21.7093 68.2258C20.1901 70.5198 18.6043 72.3472 17.8054 73.2207L19.2812 74.5705ZM27.1353 60.9588C27.8048 57.5822 27.6442 52.537 27.3118 48.248L25.3177 48.4026C25.6508 52.6997 25.7834 57.4934 25.1735 60.5698L27.1353 60.9588ZM29.7536 32.0367C32.6234 27.8734 37.7005 23.5643 46.573 23.5643V21.5643C36.9133 21.5643 31.27 26.313 28.1069 30.9016L29.7536 32.0367ZM46.573 23.5643C55.0655 23.5643 60.2661 27.5119 63.3849 31.5076L64.9615 30.277C61.5425 25.8967 55.7991 21.5643 46.573 21.5643V23.5643ZM66.9539 49.2275C66.9637 53.0375 67.2903 57.4042 68.4169 61.0589L70.3281 60.4698C69.2878 57.095 68.9635 52.9593 68.9539 49.2224L66.9539 49.2275ZM68.4169 61.0589C70.5812 68.0802 75.4645 72.9233 77.344 74.5935L78.6725 73.0985C76.8963 71.5201 72.3331 66.974 70.3281 60.4698L68.4169 61.0589ZM77.7738 73.473H18.7983V75.473H77.7738V73.473ZM77.344 74.5935C77.1041 74.3803 77.0916 74.079 77.1623 73.8894C77.2335 73.6985 77.4452 73.473 77.7738 73.473V75.473C79.0355 75.473 79.5793 73.9043 78.6725 73.0985L77.344 74.5935ZM63.3849 31.5076C65.22 33.8587 66.1181 36.6466 66.5518 39.689C66.9879 42.7485 66.9456 45.9803 66.9539 49.2275L68.9539 49.2224C68.9458 46.0363 68.9923 42.6375 68.5318 39.4068C68.0689 36.1591 67.0848 32.9973 64.9615 30.277L63.3849 31.5076ZM27.3118 48.248C26.8545 42.349 26.6533 36.5343 29.7536 32.0367L28.1069 30.9016C24.5475 36.0652 24.8681 42.6026 25.3177 48.4026L27.3118 48.248ZM17.8054 73.2207C17.0164 74.0833 17.6361 75.473 18.7983 75.473V73.473C19.3684 73.473 19.6706 74.1447 19.2812 74.5705L17.8054 73.2207Z" fill="#F33920"/>
<path d="M41.0002 17.3361C41.0002 17.8884 41.448 18.3361 42.0002 18.3361C42.5525 18.3361 43.0002 17.8884 43.0002 17.3361H41.0002ZM48.5002 17.3361C48.5002 17.8884 48.948 18.3361 49.5002 18.3361C50.0525 18.3361 50.5002 17.8884 50.5002 17.3361H48.5002ZM43.0002 17.3361V13.1818H41.0002V17.3361H43.0002ZM47.5629 11.2108L47.6225 11.2668L48.9934 9.81062L48.9339 9.75458L47.5629 11.2108ZM48.5002 13.2988V17.3361H50.5002V13.2988H48.5002ZM47.6225 11.2668C48.1826 11.7942 48.5002 12.5294 48.5002 13.2988H50.5002C50.5002 11.9781 49.955 10.7159 48.9934 9.81062L47.6225 11.2668ZM43.78 11.2808C44.8126 10.2339 46.4922 10.2028 47.5629 11.2108L48.9339 9.75458C47.0721 8.00183 44.1516 8.05592 42.3561 9.8764L43.78 11.2808ZM43.0002 13.1818C43.0002 12.4703 43.2804 11.7874 43.78 11.2808L42.3561 9.8764C41.4873 10.7572 41.0002 11.9446 41.0002 13.1818H43.0002Z" fill="#F33920"/>
<path d="M38.3687 78.8322C38.095 78.3525 37.4842 78.1856 37.0045 78.4594C36.5249 78.7332 36.358 79.3439 36.6318 79.8236L38.3687 78.8322ZM60.11 79.8386C60.3921 79.3638 60.2358 78.7502 59.761 78.4681C59.2862 78.1861 58.6726 78.3423 58.3905 78.8171L60.11 79.8386ZM56.9279 83.2371L56.0682 82.7263L56.9279 83.2371ZM36.6318 79.8236L38.7772 83.5824L40.5142 82.591L38.3687 78.8322L36.6318 79.8236ZM57.7877 83.7478L60.11 79.8386L58.3905 78.8171L56.0682 82.7263L57.7877 83.7478ZM38.7772 83.5824C42.9566 90.9049 53.4815 90.9964 57.7877 83.7478L56.0682 82.7263C52.545 88.657 43.9337 88.5821 40.5142 82.591L38.7772 83.5824Z" fill="#F33920"/>
</svg>