<svg width="96" height="96" viewBox="0 0 96 96" fill="none" xmlns="http://www.w3.org/2000/svg">
<path d="M48.2152 88L47.365 88.5264C47.5445 88.8163 47.8594 88.9948 48.2003 88.9999C48.5412 89.005 48.8613 88.836 49.0493 88.5516L48.2152 88ZM74.8438 34.1988L73.8458 34.1354L74.8438 34.1988ZM72.9678 38.8453C72.821 39.3777 73.1336 39.9283 73.666 40.0751C74.1984 40.2219 74.7491 39.9094 74.8959 39.3769L72.9678 38.8453ZM71.1667 49.3927C71.3904 48.8877 71.1624 48.297 70.6574 48.0733C70.1525 47.8497 69.5618 48.0777 69.3381 48.5826L71.1667 49.3927ZM75.8418 34.2622C76.3337 26.5191 73.8573 19.6811 68.9937 14.7809C64.1331 9.88384 56.9673 7 48.2152 7L48.2152 9C56.5238 9 63.1478 11.7302 67.5742 16.1898C71.9974 20.6464 74.305 26.9078 73.8458 34.1354L75.8418 34.2622ZM48.2152 7C30.5642 7 20.0724 20.602 21.0647 34.2712L23.0595 34.1264C22.1498 21.5968 31.7447 9 48.2152 9L48.2152 7ZM21.0647 34.2712C21.3165 37.7392 23.1415 42.8843 25.6349 48.5353C28.147 54.2288 31.4009 60.5716 34.6167 66.4892C37.8339 72.4094 41.0202 77.9175 43.4018 81.9447C44.5927 83.9586 45.5829 85.603 46.2756 86.7443C46.6219 87.315 46.894 87.76 47.0795 88.0626C47.1723 88.2139 47.2435 88.3295 47.2916 88.4075C47.3157 88.4466 47.3339 88.4761 47.3462 88.496C47.3524 88.506 47.357 88.5135 47.3602 88.5186C47.3617 88.5211 47.3629 88.5231 47.3637 88.5244C47.3641 88.525 47.3645 88.5255 47.3647 88.5259C47.3649 88.5262 47.365 88.5264 48.2152 88C49.0654 87.4736 49.0654 87.4735 49.0652 87.4732C49.065 87.4729 49.0648 87.4725 49.0644 87.4719C49.0637 87.4707 49.0626 87.469 49.0611 87.4666C49.0581 87.4618 49.0537 87.4545 49.0477 87.4449C49.0358 87.4255 49.0179 87.3965 48.9942 87.3581C48.9468 87.2813 48.8764 87.1669 48.7844 87.0168C48.6003 86.7168 48.33 86.2745 47.9853 85.7067C47.2961 84.571 46.3099 82.9332 45.1233 80.9267C42.7497 76.9129 39.5761 71.4269 36.3739 65.5342C33.1703 59.6389 29.9453 53.3501 27.4647 47.7279C24.9652 42.063 23.2832 37.2082 23.0595 34.1264L21.0647 34.2712ZM74.8959 39.3769C75.4086 37.5175 75.7448 35.79 75.8418 34.2622L73.8458 34.1354C73.7604 35.4802 73.4589 37.0645 72.9678 38.8453L74.8959 39.3769ZM48.2152 88C49.0493 88.5516 49.0494 88.5515 49.0496 88.5512C49.0497 88.5511 49.0499 88.5508 49.0501 88.5504C49.0506 88.5497 49.0513 88.5486 49.0522 88.5472C49.0541 88.5444 49.0568 88.5403 49.0603 88.5349C49.0675 88.5241 49.078 88.5081 49.092 88.487C49.1198 88.4447 49.1611 88.3819 49.2151 88.2994C49.3233 88.1345 49.4825 87.8909 49.6877 87.575C50.0982 86.9432 50.6925 86.0221 51.4293 84.8634C52.9028 82.546 54.9469 79.2768 57.23 75.4679C61.7917 67.8578 67.3261 58.0629 71.1667 49.3927L69.3381 48.5826C65.548 57.1389 60.0639 66.8501 55.5146 74.4396C53.2423 78.2305 51.2078 81.4844 49.7416 83.7902C49.0086 84.943 48.4178 85.8586 48.0106 86.4855C47.8069 86.7989 47.6492 87.0402 47.5426 87.2028C47.4893 87.2841 47.4487 87.3458 47.4216 87.387C47.408 87.4076 47.3978 87.4231 47.3911 87.4334C47.3877 87.4385 47.3851 87.4423 47.3835 87.4448C47.3826 87.4461 47.382 87.447 47.3816 87.4476C47.3814 87.4479 47.3813 87.4481 47.3812 87.4483C47.3811 87.4484 47.3811 87.4484 48.2152 88Z" fill="#F33920"/>
<circle cx="48.4258" cy="33.1356" r="6.93122" stroke="#F33920" stroke-width="2"/>
</svg>