<svg width="96" height="96" viewBox="0 0 96 96" fill="none" xmlns="http://www.w3.org/2000/svg">
<path d="M83.6438 39.7743C83.9081 38.478 84.0794 37.2223 84.151 35.9907C84.638 27.6172 79.1285 20.7374 72.1653 17.2595C65.2027 13.7819 56.3538 13.4866 49.872 18.7835C49.1002 19.4141 48.3227 20.0998 47.5336 20.8425C45.279 18.9049 43.1589 17.3637 41.0535 16.198C34.3394 12.4806 26.4196 13.7986 20.4777 17.7593C14.5358 21.72 10.2689 28.5248 11.1046 36.1522C11.2359 37.35 11.4307 38.5524 11.6683 39.7635C11.6709 39.7765 11.6736 39.7895 11.6765 39.8025C13.5057 47.9678 18.436 55.9142 24.5961 62.9867C30.7688 70.0735 38.2588 76.3772 45.3557 81.2563C46.6984 82.1794 48.4556 82.1761 49.7982 81.291C63.01 72.5814 70.2202 66.7991 79.6041 53.8784" stroke="#F33920" stroke-width="2" stroke-linecap="round" stroke-linejoin="round"/>
</svg>