<svg width="96" height="96" viewBox="0 0 96 96" fill="none" xmlns="http://www.w3.org/2000/svg">
<mask id="path-1-inside-1_1202_17599" fill="white">
<path fill-rule="evenodd" clip-rule="evenodd" d="M51.5 31C51.5 39.8366 44.3366 47 35.5 47C26.6635 47 19.5 39.8366 19.5 31C19.5 22.1634 26.6635 15 35.5 15C44.3366 15 51.5 22.1634 51.5 31ZM35.5 50C30.035 50 21.9086 51.3635 15.1231 54.0817C11.7296 55.4412 8.60858 57.1641 6.3199 59.2764C4.02443 61.395 2.5 63.9727 2.5 67V75C2.5 77.7523 4.74771 80 7.5 80H47C47.5523 80 48 79.5523 48 79C48 78.4477 47.5523 78 47 78H7.5C5.85229 78 4.5 76.6477 4.5 75V67C4.5 64.7073 5.64057 62.625 7.67635 60.7461C9.71892 58.8609 12.5954 57.2488 15.8669 55.9383C22.4114 53.3165 30.285 52 35.5 52C40.715 52 48.5886 53.3165 55.1331 55.9383C58.4046 57.2488 61.2811 58.8609 63.3236 60.7461C65.3594 62.625 66.5 64.7073 66.5 67V79C66.5 79.5523 66.9477 80 67.5 80C68.0523 80 68.5 79.5523 68.5 79V67C68.5 63.9727 66.9756 61.395 64.6801 59.2764C62.3914 57.1641 59.2704 55.4412 55.8769 54.0817C49.0914 51.3635 40.965 50 35.5 50Z"/>
</mask>
<path d="M15.1231 54.0817L15.8669 55.9383H15.8669L15.1231 54.0817ZM6.3199 59.2764L4.96344 57.8067H4.96344L6.3199 59.2764ZM7.67635 60.7461L6.3199 59.2764H6.3199L7.67635 60.7461ZM15.8669 55.9383L16.6106 57.7949H16.6106L15.8669 55.9383ZM55.1331 55.9383L54.3894 57.7949H54.3894L55.1331 55.9383ZM63.3236 60.7461L61.9672 62.2158L63.3236 60.7461ZM64.6801 59.2764L66.0366 57.8067H66.0366L64.6801 59.2764ZM55.8769 54.0817L55.1331 55.9383H55.1331L55.8769 54.0817ZM35.5 49C45.4412 49 53.5 40.9411 53.5 31H49.5C49.5 38.732 43.232 45 35.5 45V49ZM17.5 31C17.5 40.9411 25.5589 49 35.5 49V45C27.768 45 21.5 38.732 21.5 31H17.5ZM35.5 13C25.5589 13 17.5 21.0589 17.5 31H21.5C21.5 23.268 27.768 17 35.5 17V13ZM53.5 31C53.5 21.0589 45.4412 13 35.5 13V17C43.232 17 49.5 23.268 49.5 31H53.5ZM15.8669 55.9383C22.4114 53.3165 30.285 52 35.5 52V48C29.785 48 21.4057 49.4104 14.3794 52.2251L15.8669 55.9383ZM7.67635 60.7461C9.71894 58.8609 12.5954 57.2488 15.8669 55.9383L14.3794 52.2251C10.8638 53.6335 7.49821 55.4673 4.96344 57.8067L7.67635 60.7461ZM4.5 67C4.5 64.7081 5.63976 62.6258 7.67635 60.7461L4.96344 57.8067C2.4091 60.1642 0.5 63.2373 0.5 67H4.5ZM4.5 75V67H0.5V75H4.5ZM7.5 78C5.85228 78 4.5 76.6477 4.5 75H0.5C0.5 78.8568 3.64314 82 7.5 82V78ZM47 78H7.5V82H47V78ZM46 79C46 78.4477 46.4477 78 47 78V82C48.6569 82 50 80.6569 50 79H46ZM47 80C46.4477 80 46 79.5523 46 79H50C50 77.3431 48.6569 76 47 76V80ZM7.5 80H47V76H7.5V80ZM2.5 75C2.5 77.7523 4.74772 80 7.5 80V76C6.95686 76 6.5 75.5431 6.5 75H2.5ZM2.5 67V75H6.5V67H2.5ZM6.3199 59.2764C4.02342 61.3959 2.5 63.9737 2.5 67H6.5C6.5 65.4408 7.25773 63.8541 9.03281 62.2158L6.3199 59.2764ZM15.1231 54.0817C11.7296 55.4412 8.6086 57.1641 6.3199 59.2764L9.03281 62.2158C10.8293 60.5578 13.4612 59.0565 16.6106 57.7949L15.1231 54.0817ZM35.5 50C30.035 50 21.9086 51.3635 15.1231 54.0817L16.6106 57.7949C22.9143 55.2696 30.535 54 35.5 54V50ZM55.8769 54.0817C49.0914 51.3635 40.965 50 35.5 50V54C40.465 54 48.0857 55.2696 54.3894 57.7949L55.8769 54.0817ZM64.6801 59.2764C62.3914 57.1641 59.2704 55.4412 55.8769 54.0817L54.3894 57.7949C57.5388 59.0565 60.1707 60.5578 61.9672 62.2158L64.6801 59.2764ZM68.5 67C68.5 63.9737 66.9766 61.3959 64.6801 59.2764L61.9672 62.2158C63.7423 63.8541 64.5 65.4408 64.5 67H68.5ZM68.5 79V67H64.5V79H68.5ZM67.5 78C68.0523 78 68.5 78.4477 68.5 79H64.5C64.5 80.6569 65.8431 82 67.5 82V78ZM66.5 79C66.5 78.4477 66.9477 78 67.5 78V82C69.1569 82 70.5 80.6569 70.5 79H66.5ZM66.5 67V79H70.5V67H66.5ZM63.3236 60.7461C65.3602 62.6258 66.5 64.7081 66.5 67H70.5C70.5 63.2373 68.5909 60.1642 66.0366 57.8067L63.3236 60.7461ZM55.1331 55.9383C58.4046 57.2488 61.2811 58.8609 63.3237 60.7461L66.0366 57.8067C63.5018 55.4673 60.1362 53.6335 56.6206 52.2251L55.1331 55.9383ZM35.5 52C40.715 52 48.5886 53.3165 55.1331 55.9383L56.6206 52.2251C49.5943 49.4104 41.215 48 35.5 48V52Z" fill="#F33920" mask="url(#path-1-inside-1_1202_17599)"/>
<path d="M93.5001 79.5002C93.5001 80.0525 93.9478 80.5002 94.5001 80.5002C95.0523 80.5002 95.5001 80.0525 95.5001 79.5002H93.5001ZM53.3545 53.0106C52.8081 53.091 52.4303 53.5991 52.5106 54.1455C52.591 54.6919 53.0991 55.0697 53.6455 54.9894L53.3545 53.0106ZM95.5001 79.5002V67.0002H93.5001V79.5002H95.5001ZM95.5001 67.0002C95.5001 64.3361 93.6771 62.017 91.0712 60.1288C88.4336 58.2176 84.7884 56.5903 80.6662 55.3359C72.4209 52.8268 62.0211 51.7361 53.3545 53.0106L53.6455 54.9894C61.9789 53.7638 72.0791 54.8133 80.0839 57.2493C84.0867 58.4674 87.504 60.0139 89.8977 61.7483C92.323 63.5058 93.5001 65.3042 93.5001 67.0002H95.5001Z" fill="#F33920"/>
<circle cx="69" cy="32.5" r="11.5" stroke="#F33920" stroke-width="2" stroke-linecap="round"/>
</svg>