<svg width="96" height="96" viewBox="0 0 96 96" fill="none" xmlns="http://www.w3.org/2000/svg">
<path d="M47.1027 30.2958C47.1027 29.7435 46.655 29.2958 46.1027 29.2958C45.5504 29.2958 45.1027 29.7435 45.1027 30.2958H47.1027ZM63.815 57.9008C64.3322 58.0944 64.9084 57.832 65.102 57.3147C65.2956 56.7975 65.0331 56.2212 64.5159 56.0277L63.815 57.9008ZM47.9318 15.4572C47.3795 15.4572 46.9318 15.9049 46.9318 16.4572C46.9318 17.0094 47.3795 17.4572 47.9318 17.4572V15.4572ZM37.1642 19.1642C37.6931 19.0052 37.9929 18.4476 37.8339 17.9187C37.6749 17.3898 37.1172 17.0899 36.5883 17.2489L37.1642 19.1642ZM47.4984 50.7275L47.148 51.6641L47.4984 50.7275ZM46.9495 50.5929L46.7057 51.5627L46.9495 50.5929ZM45.1027 30.2958V49.5242H47.1027V30.2958H45.1027ZM47.148 51.6641L63.815 57.9008L64.5159 56.0277L47.8489 49.7909L47.148 51.6641ZM45.1027 49.5242C45.1027 50.5218 45.7989 51.3347 46.7057 51.5627L47.1934 49.6231C47.1633 49.6155 47.1388 49.5987 47.1228 49.5788C47.1083 49.5608 47.1027 49.5432 47.1027 49.5242H45.1027ZM80.235 48.4572C80.235 65.5407 65.8104 79.4572 47.9318 79.4572V81.4572C66.839 81.4572 82.235 66.7198 82.235 48.4572H80.235ZM47.9318 79.4572C30.0533 79.4572 15.6287 65.5407 15.6287 48.4572H13.6287C13.6287 66.7198 29.0247 81.4572 47.9318 81.4572V79.4572ZM47.9318 17.4572C65.8104 17.4572 80.235 31.3736 80.235 48.4572H82.235C82.235 30.1945 66.839 15.4572 47.9318 15.4572V17.4572ZM15.6287 48.4572C15.6287 37.2453 21.4135 23.9 37.1642 19.1642L36.5883 17.2489C19.7804 22.3026 13.6287 36.6056 13.6287 48.4572H15.6287ZM47.8489 49.7909C47.6898 49.7314 47.54 49.697 47.4345 49.6746C47.3051 49.647 47.2618 49.6403 47.1934 49.6231L46.7057 51.5627C46.82 51.5915 46.9629 51.619 47.0182 51.6308C47.0973 51.6476 47.1307 51.6576 47.148 51.6641L47.8489 49.7909Z" fill="#F33920"/>
</svg>